<svg xmlns="http://www.w3.org/2000/svg" viewBox="0 0 400 180" width="400" height="180" ><defs><linearGradient id="fb" x1="0" y1="0" x2="0" y2="1"><stop offset="0" stop-color="#9ad0ef"/><stop offset="1" stop-color="#4f86c6"/></linearGradient></defs><rect width="400" height="180" fill="url(#fb)"/><rect x="10" y="105" width="34" height="55" fill="#84b4dd"/><rect x="20" y="115" width="12" height="16" fill="#cfe6f7"/><rect x="48" y="86" width="34" height="74" fill="#5a93c4"/><rect x="58" y="96" width="12" height="16" fill="#cfe6f7"/><rect x="86" y="97" width="34" height="63" fill="#84b4dd"/><rect x="96" y="107" width="12" height="16" fill="#cfe6f7"/><rect x="124" y="90" width="34" height="70" fill="#84b4dd"/><rect x="134" y="100" width="12" height="16" fill="#cfe6f7"/><rect x="162" y="83" width="34" height="77" fill="#5a93c4"/><rect x="172" y="93" width="12" height="16" fill="#cfe6f7"/><rect x="200" y="82" width="34" height="78" fill="#5a93c4"/><rect x="210" y="92" width="12" height="16" fill="#cfe6f7"/><rect x="238" y="90" width="34" height="70" fill="#6fa3d0"/><rect x="248" y="100" width="12" height="16" fill="#cfe6f7"/><rect x="276" y="85" width="34" height="75" fill="#5a93c4"/><rect x="286" y="95" width="12" height="16" fill="#cfe6f7"/><rect x="314" y="108" width="34" height="52" fill="#84b4dd"/><rect x="324" y="118" width="12" height="16" fill="#cfe6f7"/><rect x="352" y="90" width="34" height="70" fill="#84b4dd"/><rect x="362" y="100" width="12" height="16" fill="#cfe6f7"/><rect y="158" width="400" height="22" fill="#365f8a"/></svg>