<svg xmlns="http://www.w3.org/2000/svg" viewBox="0 0 1100 150" width="1100" height="150" ><rect x="0" y="81" width="60" height="69" fill="#4a4a4a"/><path d="M0 81 Q30.0 39.0 60 81 Z" fill="#4a4a4a"/><rect x="28.5" y="29.0" width="3" height="10" fill="#4a4a4a"/><rect x="5" y="89" width="5" height="8" fill="#ffffff" opacity="0"/><rect x="5" y="105" width="5" height="8" fill="#ffffff" opacity="0"/><rect x="5" y="121" width="5" height="8" fill="#ffffff" opacity="0"/><rect x="5" y="137" width="5" height="8" fill="#ffffff" opacity="0"/><rect x="17" y="89" width="5" height="8" fill="#ffffff" opacity="0"/><rect x="17" y="105" width="5" height="8" fill="#ffffff" opacity="0"/><rect x="17" y="121" width="5" height="8" fill="#ffffff" opacity="0"/><rect x="17" y="137" width="5" height="8" fill="#ffffff" opacity="0"/><rect x="29" y="89" width="5" height="8" fill="#ffffff" opacity="0"/><rect x="29" y="105" width="5" height="8" fill="#ffffff" opacity="0"/><rect x="29" y="121" width="5" height="8" fill="#ffffff" opacity="0"/><rect x="29" y="137" width="5" height="8" fill="#ffffff" opacity="0"/><rect x="41" y="89" width="5" height="8" fill="#ffffff" opacity="0"/><rect x="41" y="105" width="5" height="8" fill="#ffffff" opacity="0"/><rect x="41" y="121" width="5" height="8" fill="#ffffff" opacity="0"/><rect x="41" y="137" width="5" height="8" fill="#ffffff" opacity="0"/><rect x="53" y="89" width="5" height="8" fill="#ffffff" opacity="0"/><rect x="53" y="105" width="5" height="8" fill="#ffffff" opacity="0"/><rect x="53" y="121" width="5" height="8" fill="#ffffff" opacity="0"/><rect x="53" y="137" width="5" height="8" fill="#ffffff" opacity="0"/><rect x="63" y="51" width="8" height="99" fill="#4a4a4a"/><path d="M63 51 Q67 37 71 51 Z" fill="#4a4a4a"/><rect x="75" y="93" width="63" height="57" fill="#4a4a4a"/><rect x="80" y="101" width="5" height="8" fill="#ffffff" opacity="0"/><rect x="80" y="117" width="5" height="8" fill="#ffffff" opacity="0"/><rect x="80" y="133" width="5" height="8" fill="#ffffff" opacity="0"/><rect x="92" y="101" width="5" height="8" fill="#ffffff" opacity="0"/><rect x="92" y="117" width="5" height="8" fill="#ffffff" opacity="0"/><rect x="92" y="133" width="5" height="8" fill="#ffffff" opacity="0"/><rect x="104" y="101" width="5" height="8" fill="#ffffff" opacity="0"/><rect x="104" y="117" width="5" height="8" fill="#ffffff" opacity="0"/><rect x="104" y="133" width="5" height="8" fill="#ffffff" opacity="0"/><rect x="116" y="101" width="5" height="8" fill="#ffffff" opacity="0"/><rect x="116" y="117" width="5" height="8" fill="#ffffff" opacity="0"/><rect x="116" y="133" width="5" height="8" fill="#ffffff" opacity="0"/><rect x="128" y="101" width="5" height="8" fill="#ffffff" opacity="0"/><rect x="128" y="117" width="5" height="8" fill="#ffffff" opacity="0"/><rect x="128" y="133" width="5" height="8" fill="#ffffff" opacity="0"/><rect x="141" y="63" width="8" height="87" fill="#4a4a4a"/><path d="M141 63 Q145 49 149 63 Z" fill="#4a4a4a"/><g transform="translate(146,150) scale(1.0)"><path d="M-4 0 Q-2 -34 2 -50 L6 -50 Q2 -32 4 0 Z" fill="#4a4a4a"/><path transform="rotate(-60 4 -50)" d="M4 -50 Q26 -60 44 -50 Q24 -50 4 -46 Z" fill="#4a4a4a"/><path transform="rotate(-30 4 -50)" d="M4 -50 Q26 -60 44 -50 Q24 -50 4 -46 Z" fill="#4a4a4a"/><path transform="rotate(0 4 -50)" d="M4 -50 Q26 -60 44 -50 Q24 -50 4 -46 Z" fill="#4a4a4a"/><path transform="rotate(30 4 -50)" d="M4 -50 Q26 -60 44 -50 Q24 -50 4 -46 Z" fill="#4a4a4a"/><path transform="rotate(60 4 -50)" d="M4 -50 Q26 -60 44 -50 Q24 -50 4 -46 Z" fill="#4a4a4a"/><path transform="rotate(90 4 -50)" d="M4 -50 Q26 -60 44 -50 Q24 -50 4 -46 Z" fill="#4a4a4a"/><path transform="rotate(-90 4 -50)" d="M4 -50 Q26 -60 44 -50 Q24 -50 4 -46 Z" fill="#4a4a4a"/></g><rect x="163" y="70" width="44" height="80" fill="#4a4a4a"/><path d="M163 70 Q185.0 39.2 207 70 Z" fill="#4a4a4a"/><rect x="183.5" y="29.200000000000003" width="3" height="10" fill="#4a4a4a"/><rect x="168" y="78" width="5" height="8" fill="#ffffff" opacity="0"/><rect x="168" y="94" width="5" height="8" fill="#ffffff" opacity="0"/><rect x="168" y="110" width="5" height="8" fill="#ffffff" opacity="0"/><rect x="168" y="126" width="5" height="8" fill="#ffffff" opacity="0"/><rect x="168" y="142" width="5" height="8" fill="#ffffff" opacity="0"/><rect x="180" y="78" width="5" height="8" fill="#ffffff" opacity="0"/><rect x="180" y="94" width="5" height="8" fill="#ffffff" opacity="0"/><rect x="180" y="110" width="5" height="8" fill="#ffffff" opacity="0"/><rect x="180" y="126" width="5" height="8" fill="#ffffff" opacity="0"/><rect x="180" y="142" width="5" height="8" fill="#ffffff" opacity="0"/><rect x="192" y="78" width="5" height="8" fill="#ffffff" opacity="0"/><rect x="192" y="94" width="5" height="8" fill="#ffffff" opacity="0"/><rect x="192" y="110" width="5" height="8" fill="#ffffff" opacity="0"/><rect x="192" y="126" width="5" height="8" fill="#ffffff" opacity="0"/><rect x="192" y="142" width="5" height="8" fill="#ffffff" opacity="0"/><rect x="210" y="40" width="8" height="110" fill="#4a4a4a"/><path d="M210 40 Q214 26 218 40 Z" fill="#4a4a4a"/><rect x="222" y="93" width="54" height="57" fill="#4a4a4a"/><rect x="227" y="101" width="5" height="8" fill="#ffffff" opacity="0"/><rect x="227" y="117" width="5" height="8" fill="#ffffff" opacity="0"/><rect x="227" y="133" width="5" height="8" fill="#ffffff" opacity="0"/><rect x="239" y="101" width="5" height="8" fill="#ffffff" opacity="0"/><rect x="239" y="117" width="5" height="8" fill="#ffffff" opacity="0"/><rect x="239" y="133" width="5" height="8" fill="#ffffff" opacity="0"/><rect x="251" y="101" width="5" height="8" fill="#ffffff" opacity="0"/><rect x="251" y="117" width="5" height="8" fill="#ffffff" opacity="0"/><rect x="251" y="133" width="5" height="8" fill="#ffffff" opacity="0"/><rect x="263" y="101" width="5" height="8" fill="#ffffff" opacity="0"/><rect x="263" y="117" width="5" height="8" fill="#ffffff" opacity="0"/><rect x="263" y="133" width="5" height="8" fill="#ffffff" opacity="0"/><rect x="279" y="63" width="8" height="87" fill="#4a4a4a"/><path d="M279 63 Q283 49 287 63 Z" fill="#4a4a4a"/><rect x="289" y="83" width="75" height="67" fill="#4a4a4a"/><path d="M289 83 Q326.5 30.5 364 83 Z" fill="#4a4a4a"/><rect x="325.0" y="20.5" width="3" height="10" fill="#4a4a4a"/><rect x="294" y="91" width="5" height="8" fill="#ffffff" opacity="0"/><rect x="294" y="107" width="5" height="8" fill="#ffffff" opacity="0"/><rect x="294" y="123" width="5" height="8" fill="#ffffff" opacity="0"/><rect x="294" y="139" width="5" height="8" fill="#ffffff" opacity="0"/><rect x="306" y="91" width="5" height="8" fill="#ffffff" opacity="0"/><rect x="306" y="107" width="5" height="8" fill="#ffffff" opacity="0"/><rect x="306" y="123" width="5" height="8" fill="#ffffff" opacity="0"/><rect x="306" y="139" width="5" height="8" fill="#ffffff" opacity="0"/><rect x="318" y="91" width="5" height="8" fill="#ffffff" opacity="0"/><rect x="318" y="107" width="5" height="8" fill="#ffffff" opacity="0"/><rect x="318" y="123" width="5" height="8" fill="#ffffff" opacity="0"/><rect x="318" y="139" width="5" height="8" fill="#ffffff" opacity="0"/><rect x="330" y="91" width="5" height="8" fill="#ffffff" opacity="0"/><rect x="330" y="107" width="5" height="8" fill="#ffffff" opacity="0"/><rect x="330" y="123" width="5" height="8" fill="#ffffff" opacity="0"/><rect x="330" y="139" width="5" height="8" fill="#ffffff" opacity="0"/><rect x="342" y="91" width="5" height="8" fill="#ffffff" opacity="0"/><rect x="342" y="107" width="5" height="8" fill="#ffffff" opacity="0"/><rect x="342" y="123" width="5" height="8" fill="#ffffff" opacity="0"/><rect x="342" y="139" width="5" height="8" fill="#ffffff" opacity="0"/><rect x="354" y="91" width="5" height="8" fill="#ffffff" opacity="0"/><rect x="354" y="107" width="5" height="8" fill="#ffffff" opacity="0"/><rect x="354" y="123" width="5" height="8" fill="#ffffff" opacity="0"/><rect x="354" y="139" width="5" height="8" fill="#ffffff" opacity="0"/><rect x="367" y="53" width="8" height="97" fill="#4a4a4a"/><path d="M367 53 Q371 39 375 53 Z" fill="#4a4a4a"/><g transform="translate(372,150) scale(1.0)"><path d="M-4 0 Q-2 -34 2 -50 L6 -50 Q2 -32 4 0 Z" fill="#4a4a4a"/><path transform="rotate(-60 4 -50)" d="M4 -50 Q26 -60 44 -50 Q24 -50 4 -46 Z" fill="#4a4a4a"/><path transform="rotate(-30 4 -50)" d="M4 -50 Q26 -60 44 -50 Q24 -50 4 -46 Z" fill="#4a4a4a"/><path transform="rotate(0 4 -50)" d="M4 -50 Q26 -60 44 -50 Q24 -50 4 -46 Z" fill="#4a4a4a"/><path transform="rotate(30 4 -50)" d="M4 -50 Q26 -60 44 -50 Q24 -50 4 -46 Z" fill="#4a4a4a"/><path transform="rotate(60 4 -50)" d="M4 -50 Q26 -60 44 -50 Q24 -50 4 -46 Z" fill="#4a4a4a"/><path transform="rotate(90 4 -50)" d="M4 -50 Q26 -60 44 -50 Q24 -50 4 -46 Z" fill="#4a4a4a"/><path transform="rotate(-90 4 -50)" d="M4 -50 Q26 -60 44 -50 Q24 -50 4 -46 Z" fill="#4a4a4a"/></g><rect x="385" y="77" width="75" height="73" fill="#4a4a4a"/><path d="M385 77 Q422.5 24.5 460 77 Z" fill="#4a4a4a"/><rect x="421.0" y="14.5" width="3" height="10" fill="#4a4a4a"/><rect x="390" y="85" width="5" height="8" fill="#ffffff" opacity="0"/><rect x="390" y="101" width="5" height="8" fill="#ffffff" opacity="0"/><rect x="390" y="117" width="5" height="8" fill="#ffffff" opacity="0"/><rect x="390" y="133" width="5" height="8" fill="#ffffff" opacity="0"/><rect x="402" y="85" width="5" height="8" fill="#ffffff" opacity="0"/><rect x="402" y="101" width="5" height="8" fill="#ffffff" opacity="0"/><rect x="402" y="117" width="5" height="8" fill="#ffffff" opacity="0"/><rect x="402" y="133" width="5" height="8" fill="#ffffff" opacity="0"/><rect x="414" y="85" width="5" height="8" fill="#ffffff" opacity="0"/><rect x="414" y="101" width="5" height="8" fill="#ffffff" opacity="0"/><rect x="414" y="117" width="5" height="8" fill="#ffffff" opacity="0"/><rect x="414" y="133" width="5" height="8" fill="#ffffff" opacity="0"/><rect x="426" y="85" width="5" height="8" fill="#ffffff" opacity="0"/><rect x="426" y="101" width="5" height="8" fill="#ffffff" opacity="0"/><rect x="426" y="117" width="5" height="8" fill="#ffffff" opacity="0"/><rect x="426" y="133" width="5" height="8" fill="#ffffff" opacity="0"/><rect x="438" y="85" width="5" height="8" fill="#ffffff" opacity="0"/><rect x="438" y="101" width="5" height="8" fill="#ffffff" opacity="0"/><rect x="438" y="117" width="5" height="8" fill="#ffffff" opacity="0"/><rect x="438" y="133" width="5" height="8" fill="#ffffff" opacity="0"/><rect x="450" y="85" width="5" height="8" fill="#ffffff" opacity="0"/><rect x="450" y="101" width="5" height="8" fill="#ffffff" opacity="0"/><rect x="450" y="117" width="5" height="8" fill="#ffffff" opacity="0"/><rect x="450" y="133" width="5" height="8" fill="#ffffff" opacity="0"/><g transform="translate(468,150) scale(1.0)"><path d="M-4 0 Q-2 -34 2 -50 L6 -50 Q2 -32 4 0 Z" fill="#4a4a4a"/><path transform="rotate(-60 4 -50)" d="M4 -50 Q26 -60 44 -50 Q24 -50 4 -46 Z" fill="#4a4a4a"/><path transform="rotate(-30 4 -50)" d="M4 -50 Q26 -60 44 -50 Q24 -50 4 -46 Z" fill="#4a4a4a"/><path transform="rotate(0 4 -50)" d="M4 -50 Q26 -60 44 -50 Q24 -50 4 -46 Z" fill="#4a4a4a"/><path transform="rotate(30 4 -50)" d="M4 -50 Q26 -60 44 -50 Q24 -50 4 -46 Z" fill="#4a4a4a"/><path transform="rotate(60 4 -50)" d="M4 -50 Q26 -60 44 -50 Q24 -50 4 -46 Z" fill="#4a4a4a"/><path transform="rotate(90 4 -50)" d="M4 -50 Q26 -60 44 -50 Q24 -50 4 -46 Z" fill="#4a4a4a"/><path transform="rotate(-90 4 -50)" d="M4 -50 Q26 -60 44 -50 Q24 -50 4 -46 Z" fill="#4a4a4a"/></g><rect x="475" y="92" width="75" height="58" fill="#4a4a4a"/><rect x="480" y="100" width="5" height="8" fill="#ffffff" opacity="0"/><rect x="480" y="116" width="5" height="8" fill="#ffffff" opacity="0"/><rect x="480" y="132" width="5" height="8" fill="#ffffff" opacity="0"/><rect x="492" y="100" width="5" height="8" fill="#ffffff" opacity="0"/><rect x="492" y="116" width="5" height="8" fill="#ffffff" opacity="0"/><rect x="492" y="132" width="5" height="8" fill="#ffffff" opacity="0"/><rect x="504" y="100" width="5" height="8" fill="#ffffff" opacity="0"/><rect x="504" y="116" width="5" height="8" fill="#ffffff" opacity="0"/><rect x="504" y="132" width="5" height="8" fill="#ffffff" opacity="0"/><rect x="516" y="100" width="5" height="8" fill="#ffffff" opacity="0"/><rect x="516" y="116" width="5" height="8" fill="#ffffff" opacity="0"/><rect x="516" y="132" width="5" height="8" fill="#ffffff" opacity="0"/><rect x="528" y="100" width="5" height="8" fill="#ffffff" opacity="0"/><rect x="528" y="116" width="5" height="8" fill="#ffffff" opacity="0"/><rect x="528" y="132" width="5" height="8" fill="#ffffff" opacity="0"/><rect x="540" y="100" width="5" height="8" fill="#ffffff" opacity="0"/><rect x="540" y="116" width="5" height="8" fill="#ffffff" opacity="0"/><rect x="540" y="132" width="5" height="8" fill="#ffffff" opacity="0"/><rect x="579" y="60" width="67" height="90" fill="#4a4a4a"/><path d="M579 60 Q612.5 13.100000000000001 646 60 Z" fill="#4a4a4a"/><rect x="611.0" y="3.1000000000000014" width="3" height="10" fill="#4a4a4a"/><rect x="584" y="68" width="5" height="8" fill="#ffffff" opacity="0"/><rect x="584" y="84" width="5" height="8" fill="#ffffff" opacity="0"/><rect x="584" y="100" width="5" height="8" fill="#ffffff" opacity="0"/><rect x="584" y="116" width="5" height="8" fill="#ffffff" opacity="0"/><rect x="584" y="132" width="5" height="8" fill="#ffffff" opacity="0"/><rect x="596" y="68" width="5" height="8" fill="#ffffff" opacity="0"/><rect x="596" y="84" width="5" height="8" fill="#ffffff" opacity="0"/><rect x="596" y="100" width="5" height="8" fill="#ffffff" opacity="0"/><rect x="596" y="116" width="5" height="8" fill="#ffffff" opacity="0"/><rect x="596" y="132" width="5" height="8" fill="#ffffff" opacity="0"/><rect x="608" y="68" width="5" height="8" fill="#ffffff" opacity="0"/><rect x="608" y="84" width="5" height="8" fill="#ffffff" opacity="0"/><rect x="608" y="100" width="5" height="8" fill="#ffffff" opacity="0"/><rect x="608" y="116" width="5" height="8" fill="#ffffff" opacity="0"/><rect x="608" y="132" width="5" height="8" fill="#ffffff" opacity="0"/><rect x="620" y="68" width="5" height="8" fill="#ffffff" opacity="0"/><rect x="620" y="84" width="5" height="8" fill="#ffffff" opacity="0"/><rect x="620" y="100" width="5" height="8" fill="#ffffff" opacity="0"/><rect x="620" y="116" width="5" height="8" fill="#ffffff" opacity="0"/><rect x="620" y="132" width="5" height="8" fill="#ffffff" opacity="0"/><rect x="632" y="68" width="5" height="8" fill="#ffffff" opacity="0"/><rect x="632" y="84" width="5" height="8" fill="#ffffff" opacity="0"/><rect x="632" y="100" width="5" height="8" fill="#ffffff" opacity="0"/><rect x="632" y="116" width="5" height="8" fill="#ffffff" opacity="0"/><rect x="632" y="132" width="5" height="8" fill="#ffffff" opacity="0"/><rect x="665" y="77" width="90" height="73" fill="#4a4a4a"/><rect x="670" y="85" width="5" height="8" fill="#ffffff" opacity="0"/><rect x="670" y="101" width="5" height="8" fill="#ffffff" opacity="0"/><rect x="670" y="117" width="5" height="8" fill="#ffffff" opacity="0"/><rect x="670" y="133" width="5" height="8" fill="#ffffff" opacity="0"/><rect x="682" y="85" width="5" height="8" fill="#ffffff" opacity="0"/><rect x="682" y="101" width="5" height="8" fill="#ffffff" opacity="0"/><rect x="682" y="117" width="5" height="8" fill="#ffffff" opacity="0"/><rect x="682" y="133" width="5" height="8" fill="#ffffff" opacity="0"/><rect x="694" y="85" width="5" height="8" fill="#ffffff" opacity="0"/><rect x="694" y="101" width="5" height="8" fill="#ffffff" opacity="0"/><rect x="694" y="117" width="5" height="8" fill="#ffffff" opacity="0"/><rect x="694" y="133" width="5" height="8" fill="#ffffff" opacity="0"/><rect x="706" y="85" width="5" height="8" fill="#ffffff" opacity="0"/><rect x="706" y="101" width="5" height="8" fill="#ffffff" opacity="0"/><rect x="706" y="117" width="5" height="8" fill="#ffffff" opacity="0"/><rect x="706" y="133" width="5" height="8" fill="#ffffff" opacity="0"/><rect x="718" y="85" width="5" height="8" fill="#ffffff" opacity="0"/><rect x="718" y="101" width="5" height="8" fill="#ffffff" opacity="0"/><rect x="718" y="117" width="5" height="8" fill="#ffffff" opacity="0"/><rect x="718" y="133" width="5" height="8" fill="#ffffff" opacity="0"/><rect x="730" y="85" width="5" height="8" fill="#ffffff" opacity="0"/><rect x="730" y="101" width="5" height="8" fill="#ffffff" opacity="0"/><rect x="730" y="117" width="5" height="8" fill="#ffffff" opacity="0"/><rect x="730" y="133" width="5" height="8" fill="#ffffff" opacity="0"/><rect x="742" y="85" width="5" height="8" fill="#ffffff" opacity="0"/><rect x="742" y="101" width="5" height="8" fill="#ffffff" opacity="0"/><rect x="742" y="117" width="5" height="8" fill="#ffffff" opacity="0"/><rect x="742" y="133" width="5" height="8" fill="#ffffff" opacity="0"/><rect x="758" y="47" width="8" height="103" fill="#4a4a4a"/><path d="M758 47 Q762 33 766 47 Z" fill="#4a4a4a"/><rect x="783" y="57" width="71" height="93" fill="#4a4a4a"/><rect x="788" y="65" width="5" height="8" fill="#ffffff" opacity="0"/><rect x="788" y="81" width="5" height="8" fill="#ffffff" opacity="0"/><rect x="788" y="97" width="5" height="8" fill="#ffffff" opacity="0"/><rect x="788" y="113" width="5" height="8" fill="#ffffff" opacity="0"/><rect x="788" y="129" width="5" height="8" fill="#ffffff" opacity="0"/><rect x="800" y="65" width="5" height="8" fill="#ffffff" opacity="0"/><rect x="800" y="81" width="5" height="8" fill="#ffffff" opacity="0"/><rect x="800" y="97" width="5" height="8" fill="#ffffff" opacity="0"/><rect x="800" y="113" width="5" height="8" fill="#ffffff" opacity="0"/><rect x="800" y="129" width="5" height="8" fill="#ffffff" opacity="0"/><rect x="812" y="65" width="5" height="8" fill="#ffffff" opacity="0"/><rect x="812" y="81" width="5" height="8" fill="#ffffff" opacity="0"/><rect x="812" y="97" width="5" height="8" fill="#ffffff" opacity="0"/><rect x="812" y="113" width="5" height="8" fill="#ffffff" opacity="0"/><rect x="812" y="129" width="5" height="8" fill="#ffffff" opacity="0"/><rect x="824" y="65" width="5" height="8" fill="#ffffff" opacity="0"/><rect x="824" y="81" width="5" height="8" fill="#ffffff" opacity="0"/><rect x="824" y="97" width="5" height="8" fill="#ffffff" opacity="0"/><rect x="824" y="113" width="5" height="8" fill="#ffffff" opacity="0"/><rect x="824" y="129" width="5" height="8" fill="#ffffff" opacity="0"/><rect x="836" y="65" width="5" height="8" fill="#ffffff" opacity="0"/><rect x="836" y="81" width="5" height="8" fill="#ffffff" opacity="0"/><rect x="836" y="97" width="5" height="8" fill="#ffffff" opacity="0"/><rect x="836" y="113" width="5" height="8" fill="#ffffff" opacity="0"/><rect x="836" y="129" width="5" height="8" fill="#ffffff" opacity="0"/><rect x="857" y="27" width="8" height="123" fill="#4a4a4a"/><path d="M857 27 Q861 13 865 27 Z" fill="#4a4a4a"/><rect x="869" y="47" width="72" height="103" fill="#4a4a4a"/><path d="M869 47 Q905.0 -3.3999999999999986 941 47 Z" fill="#4a4a4a"/><rect x="903.5" y="-13.399999999999999" width="3" height="10" fill="#4a4a4a"/><rect x="874" y="55" width="5" height="8" fill="#ffffff" opacity="0"/><rect x="874" y="71" width="5" height="8" fill="#ffffff" opacity="0"/><rect x="874" y="87" width="5" height="8" fill="#ffffff" opacity="0"/><rect x="874" y="103" width="5" height="8" fill="#ffffff" opacity="0"/><rect x="874" y="119" width="5" height="8" fill="#ffffff" opacity="0"/><rect x="874" y="135" width="5" height="8" fill="#ffffff" opacity="0"/><rect x="886" y="55" width="5" height="8" fill="#ffffff" opacity="0"/><rect x="886" y="71" width="5" height="8" fill="#ffffff" opacity="0"/><rect x="886" y="87" width="5" height="8" fill="#ffffff" opacity="0"/><rect x="886" y="103" width="5" height="8" fill="#ffffff" opacity="0"/><rect x="886" y="119" width="5" height="8" fill="#ffffff" opacity="0"/><rect x="886" y="135" width="5" height="8" fill="#ffffff" opacity="0"/><rect x="898" y="55" width="5" height="8" fill="#ffffff" opacity="0"/><rect x="898" y="71" width="5" height="8" fill="#ffffff" opacity="0"/><rect x="898" y="87" width="5" height="8" fill="#ffffff" opacity="0"/><rect x="898" y="103" width="5" height="8" fill="#ffffff" opacity="0"/><rect x="898" y="119" width="5" height="8" fill="#ffffff" opacity="0"/><rect x="898" y="135" width="5" height="8" fill="#ffffff" opacity="0"/><rect x="910" y="55" width="5" height="8" fill="#ffffff" opacity="0"/><rect x="910" y="71" width="5" height="8" fill="#ffffff" opacity="0"/><rect x="910" y="87" width="5" height="8" fill="#ffffff" opacity="0"/><rect x="910" y="103" width="5" height="8" fill="#ffffff" opacity="0"/><rect x="910" y="119" width="5" height="8" fill="#ffffff" opacity="0"/><rect x="910" y="135" width="5" height="8" fill="#ffffff" opacity="0"/><rect x="922" y="55" width="5" height="8" fill="#ffffff" opacity="0"/><rect x="922" y="71" width="5" height="8" fill="#ffffff" opacity="0"/><rect x="922" y="87" width="5" height="8" fill="#ffffff" opacity="0"/><rect x="922" y="103" width="5" height="8" fill="#ffffff" opacity="0"/><rect x="922" y="119" width="5" height="8" fill="#ffffff" opacity="0"/><rect x="922" y="135" width="5" height="8" fill="#ffffff" opacity="0"/><rect x="934" y="55" width="5" height="8" fill="#ffffff" opacity="0"/><rect x="934" y="71" width="5" height="8" fill="#ffffff" opacity="0"/><rect x="934" y="87" width="5" height="8" fill="#ffffff" opacity="0"/><rect x="934" y="103" width="5" height="8" fill="#ffffff" opacity="0"/><rect x="934" y="119" width="5" height="8" fill="#ffffff" opacity="0"/><rect x="934" y="135" width="5" height="8" fill="#ffffff" opacity="0"/><rect x="944" y="17" width="8" height="133" fill="#4a4a4a"/><path d="M944 17 Q948 3 952 17 Z" fill="#4a4a4a"/><rect x="966" y="91" width="42" height="59" fill="#4a4a4a"/><rect x="971" y="99" width="5" height="8" fill="#ffffff" opacity="0"/><rect x="971" y="115" width="5" height="8" fill="#ffffff" opacity="0"/><rect x="971" y="131" width="5" height="8" fill="#ffffff" opacity="0"/><rect x="983" y="99" width="5" height="8" fill="#ffffff" opacity="0"/><rect x="983" y="115" width="5" height="8" fill="#ffffff" opacity="0"/><rect x="983" y="131" width="5" height="8" fill="#ffffff" opacity="0"/><rect x="995" y="99" width="5" height="8" fill="#ffffff" opacity="0"/><rect x="995" y="115" width="5" height="8" fill="#ffffff" opacity="0"/><rect x="995" y="131" width="5" height="8" fill="#ffffff" opacity="0"/><rect x="1030" y="56" width="61" height="94" fill="#4a4a4a"/><rect x="1035" y="64" width="5" height="8" fill="#ffffff" opacity="0"/><rect x="1035" y="80" width="5" height="8" fill="#ffffff" opacity="0"/><rect x="1035" y="96" width="5" height="8" fill="#ffffff" opacity="0"/><rect x="1035" y="112" width="5" height="8" fill="#ffffff" opacity="0"/><rect x="1035" y="128" width="5" height="8" fill="#ffffff" opacity="0"/><rect x="1047" y="64" width="5" height="8" fill="#ffffff" opacity="0"/><rect x="1047" y="80" width="5" height="8" fill="#ffffff" opacity="0"/><rect x="1047" y="96" width="5" height="8" fill="#ffffff" opacity="0"/><rect x="1047" y="112" width="5" height="8" fill="#ffffff" opacity="0"/><rect x="1047" y="128" width="5" height="8" fill="#ffffff" opacity="0"/><rect x="1059" y="64" width="5" height="8" fill="#ffffff" opacity="0"/><rect x="1059" y="80" width="5" height="8" fill="#ffffff" opacity="0"/><rect x="1059" y="96" width="5" height="8" fill="#ffffff" opacity="0"/><rect x="1059" y="112" width="5" height="8" fill="#ffffff" opacity="0"/><rect x="1059" y="128" width="5" height="8" fill="#ffffff" opacity="0"/><rect x="1071" y="64" width="5" height="8" fill="#ffffff" opacity="0"/><rect x="1071" y="80" width="5" height="8" fill="#ffffff" opacity="0"/><rect x="1071" y="96" width="5" height="8" fill="#ffffff" opacity="0"/><rect x="1071" y="112" width="5" height="8" fill="#ffffff" opacity="0"/><rect x="1071" y="128" width="5" height="8" fill="#ffffff" opacity="0"/><rect x="1083" y="64" width="5" height="8" fill="#ffffff" opacity="0"/><rect x="1083" y="80" width="5" height="8" fill="#ffffff" opacity="0"/><rect x="1083" y="96" width="5" height="8" fill="#ffffff" opacity="0"/><rect x="1083" y="112" width="5" height="8" fill="#ffffff" opacity="0"/><rect x="1083" y="128" width="5" height="8" fill="#ffffff" opacity="0"/></svg>